


<svg viewBox="0 0 50 50" width="50px" height="50px" xmlns="http://www.w3.org/2000/svg">
  <defs></defs>
  <path fill="none" stroke = "lightgreen" d="M 44.922 13.154 C 44.579 12.576 43.936 12.03 43.274 11.685 L 26.482 2.245 C 25.182 1.516 23.595 1.543 22.297 2.273 L 5.502 11.71 C 4.839 12.055 4.246 12.575 3.903 13.154 C 3.558 13.734 3.39 14.561 3.414 15.299 L 3.412 34.171 C 3.388 34.909 3.557 35.677 3.902 36.258 C 4.245 36.836 4.888 37.382 5.55 37.728 L 22.342 47.167 C 23.011 47.537 23.714 47.706 24.412 47.706 C 25.11 47.706 25.837 47.523 26.507 47.153 L 43.322 37.702 C 43.985 37.357 44.578 36.837 44.921 36.258 C 45.266 35.678 45.434 34.851 45.41 34.113 L 45.412 15.241 C 45.436 14.503 45.267 13.735 44.922 13.154 Z"></path>
  <path fill="lightgreen" d="M 25.196 37.196 C 21.887 37.196 18.864 35.873 16.715 33.677 C 14.519 31.528 13.196 28.505 13.196 25.196 C 13.196 21.887 14.519 18.864 16.715 16.715 C 18.864 14.519 21.887 13.196 25.196 13.196 C 28.972 13.196 32.469 14.953 34.747 17.948 L 34.739 17.938 L 30.357 20.472 L 30.898 21.095 L 30.372 20.49 C 29.037 19.036 27.158 18.196 25.196 18.196 C 23.266 18.196 21.516 18.982 20.249 20.249 C 18.982 21.516 18.196 23.266 18.196 25.196 C 18.196 27.126 18.982 28.876 20.249 30.143 C 21.516 31.41 23.266 32.196 25.196 32.196 C 27.158 32.196 29.038 31.355 30.373 29.901 L 30.357 29.92 L 34.739 32.454 L 34.747 32.444 C 32.469 35.439 28.972 37.196 25.196 37.196 Z"></path>
</svg>