

<svg fill = 'lightgreen' version="1.1" x="0px" y="0px" viewBox="1.541 22.474 86.661 50.857" enable-background="new 0 0 90 90" xmlns="http://www.w3.org/2000/svg">
  <defs></defs>
  <g>
    <polygon points="41.031,32.583 40.662,32.256 44.494,27.944 72.611,27.944 72.611,28.439 44.716,28.439  "></polygon>
  </g>
  <circle cx="6.602" cy="54.198" r="3.597"></circle>
  <circle cx="60.471" cy="33.838" r="3.598"></circle>
  <circle cx="72.61" cy="28.192" r="3.598"></circle>
  <circle cx="82.961" cy="46.856" r="3.598"></circle>
  <circle cx="40.846" cy="32.419" r="3.597"></circle>
  <g>
    <polygon points="51.381,51.248 51.012,50.92 54.844,46.608 82.961,46.608 82.961,47.104 55.065,47.104  "></polygon>
  </g>
  <circle cx="51.196" cy="51.084" r="3.598"></circle>
  <g>
    <polygon points="28.314,54.444 6.602,54.444 6.602,53.951 28.11,53.951 48.472,33.591 57.44,33.591 57.44,34.085 48.676,34.085     "></polygon>
  </g>
  <circle cx="18.053" cy="60.347" r="3.598"></circle>
  <g>
    <polygon points="31.253,60.594 18.053,60.594 18.053,60.1 31.049,60.1 51.408,39.741 74.563,39.741 74.563,40.235 51.612,40.235     "></polygon>
  </g>
</svg>